# xmcd CD database file
#
# Track frame offsets:
#	150
#	29415
#	57323
#	85126
#	114843
#	134681
#	148806
#	185433
#	219656
#	251844
#	283476
#	312257
#
# Disc length: 4358 seconds
#
# Revision: 0
# Processed by: cddbd v1.5.2PL0 Copyright (c) Steve Scherf et al.
# Submitted via: CDex 1.70beta2
#
DISCID=bf11040c
DTITLE=Preservation Hall Jazz Band - Best Of Preservation Hall Jazz Band
DYEAR=2008
DGENRE=Jazz
TTITLE0=Shake That Thing
TTITLE1=His Eye Is On The Sparrow
TTITLE2=That Bucket's Got A Hole In It
TTITLE3=Apple Tree
TTITLE4=I'm Confessin'
TTITLE5=If I Had My Life To Live Over
TTITLE6=Bourbon Street Parade
TTITLE7=Basin Street Blues
TTITLE8=Go To The Mardi Gras
TTITLE9=Bill Bailey
TTITLE10=When The Saints Go Marching In
TTITLE11=St James Infirmary
EXTD=YEAR: 2008
EXTT0=
EXTT1=
EXTT2=
EXTT3=
EXTT4=
EXTT5=
EXTT6=
EXTT7=
EXTT8=
EXTT9=
EXTT10=
EXTT11=
PLAYORDER=
